<?xml version="1.0" encoding="UTF-8"?>
<svg xmlns="http://www.w3.org/2000/svg" xmlns:xlink="http://www.w3.org/1999/xlink" width="29px" height="36px" viewBox="0 0 29 35" version="1.1">
<g id="surface1">
<path style=" stroke:none;fill-rule:nonzero;fill:rgb(0%,0%,0%);fill-opacity:1;" d="M 28.078125 11.929688 C 27.871094 12.089844 24.222656 14.109375 24.222656 18.597656 C 24.222656 23.792969 28.863281 25.628906 29.003906 25.675781 C 28.980469 25.789062 28.265625 28.191406 26.554688 30.640625 C 25.03125 32.796875 23.4375 34.949219 21.015625 34.949219 C 18.59375 34.949219 17.96875 33.570312 15.171875 33.570312 C 12.449219 33.570312 11.480469 34.996094 9.261719 34.996094 C 7.046875 34.996094 5.5 33 3.722656 30.550781 C 1.664062 27.675781 0 23.203125 0 18.964844 C 0 12.160156 4.503906 8.550781 8.933594 8.550781 C 11.289062 8.550781 13.253906 10.070312 14.730469 10.070312 C 16.140625 10.070312 18.332031 8.460938 21.011719 8.460938 C 22.027344 8.460938 25.675781 8.550781 28.078125 11.929688 Z M 19.742188 5.578125 C 20.847656 4.289062 21.632812 2.496094 21.632812 0.703125 C 21.632812 0.453125 21.609375 0.203125 21.566406 0 C 19.761719 0.0664062 17.617188 1.179688 16.324219 2.652344 C 15.308594 3.785156 14.359375 5.578125 14.359375 7.394531 C 14.359375 7.667969 14.40625 7.941406 14.429688 8.027344 C 14.542969 8.050781 14.726562 8.074219 14.914062 8.074219 C 16.53125 8.074219 18.566406 7.011719 19.742188 5.578125 Z M 19.742188 5.578125 "/>
</g>
</svg>
